<svg width="40" height="40" viewBox="0 0 40 40" fill="none" xmlns="http://www.w3.org/2000/svg">
    <path d="M10 31.6667H30V15.2625L20 6.17153L10 15.2625V31.6667ZM31.6667 35H8.33335C7.41289 35 6.66669 34.2538 6.66669 33.3333V18.3333H1.66669L18.8789 2.68587C19.5145 2.10797 20.4855 2.10797 21.1212 2.68587L38.3334 18.3333H33.3334V33.3333C33.3334 34.2538 32.5872 35 31.6667 35ZM13.3334 16.6667C19.7767 16.6667 25 21.89 25 28.3333H21.6667C21.6667 23.731 17.9357 20 13.3334 20V16.6667ZM13.3334 23.3333C16.0948 23.3333 18.3334 25.5718 18.3334 28.3333H13.3334V23.3333Z" fill="#1D828E"/>
</svg>