<svg width="40" height="40" viewBox="0 0 40 40" fill="none" xmlns="http://www.w3.org/2000/svg">
    <path d="M33.3415 33.8882V36.666H30.0082V34.4438L17.6452 36.5043C17.1912 36.58 16.7619 36.2733 16.6862 35.8193C16.6787 35.774 16.6749 35.7282 16.6749 35.6823V33.3327H10.0082V36.666H6.67482V33.3327H5.00816C4.08769 33.3327 3.34149 32.5865 3.34149 31.666V6.66602C3.34149 5.74556 4.08769 4.99936 5.00816 4.99936H16.6749V2.64974C16.6749 2.18951 17.0479 1.81641 17.5082 1.81641C17.554 1.81641 17.5999 1.82021 17.6452 1.82776L35.2822 4.76726C36.0859 4.90119 36.6749 5.59651 36.6749 6.41124V9.99936H38.3415V13.3327H36.6749V24.9993H38.3415V28.3327H36.6749V31.9208C36.6749 32.7355 36.0859 33.4308 35.2822 33.5648L33.3415 33.8882ZM6.67482 8.33269V29.9993H16.6749V8.33269H6.67482ZM20.0082 32.7312L33.3415 30.509V7.82312L20.0082 5.60089V32.7312ZM27.5082 23.3327C26.1275 23.3327 25.0082 21.4672 25.0082 19.166C25.0082 16.8648 26.1275 14.9994 27.5082 14.9994C28.8889 14.9994 30.0082 16.8648 30.0082 19.166C30.0082 21.4672 28.8889 23.3327 27.5082 23.3327Z" fill="#1D828E"/>
</svg>