<svg width="40" height="40" viewBox="0 0 40 40" fill="none" xmlns="http://www.w3.org/2000/svg">
    <path d="M16.6218 30.0002H18.3334V21.6668H21.6667V30.0002H23.3782C23.5982 27.9975 24.6202 26.3443 26.2794 24.5378C26.4662 24.3345 27.6647 23.0942 27.8069 22.917C29.2197 21.1553 30 18.9752 30 16.6668C30 11.144 25.5229 6.66683 20 6.66683C14.4772 6.66683 10 11.144 10 16.6668C10 18.974 10.7796 21.153 12.1911 22.9142C12.3334 23.0918 13.5347 24.3355 13.7193 24.5365C15.3795 26.3442 16.4017 27.9975 16.6218 30.0002ZM16.6667 33.3335V35.0002H23.3334V33.3335H16.6667ZM9.58994 24.9988C7.76077 22.7163 6.66669 19.8193 6.66669 16.6668C6.66669 9.30303 12.6362 3.3335 20 3.3335C27.3639 3.3335 33.3334 9.30303 33.3334 16.6668C33.3334 19.821 32.238 22.7193 30.4072 25.0025C29.3734 26.2915 26.6667 28.3335 26.6667 30.8335V35.0002C26.6667 36.8412 25.1744 38.3335 23.3334 38.3335H16.6667C14.8257 38.3335 13.3334 36.8412 13.3334 35.0002V30.8335C13.3334 28.3335 10.6243 26.2895 9.58994 24.9988Z" fill="#1D828E"/>
</svg>