<svg width="40" height="40" viewBox="0 0 40 40" fill="none" xmlns="http://www.w3.org/2000/svg">
    <path d="M10 11.6665C10 6.14365 14.4771 1.6665 20 1.6665C25.5228 1.6665 30 6.14365 30 11.6665C30 12.1034 29.9718 12.5343 29.9173 12.9575C32.95 14.6734 35 17.929 35 21.6665C35 27.1893 30.5228 31.6665 25 31.6665H21.6667V36.6665H18.3333V31.6665H14.1667C9.10405 31.6665 5 27.5625 5 22.4998C5 18.8103 7.17853 15.6326 10.3183 14.1782C10.1106 13.3757 10 12.5338 10 11.6665ZM11.6827 17.2197C9.70293 18.1528 8.33333 20.1678 8.33333 22.4998C8.33333 25.7215 10.945 28.3332 14.1667 28.3332H25C28.6818 28.3332 31.6667 25.3483 31.6667 21.6665C31.6667 18.8425 29.9102 16.4246 27.424 15.4537L26.0215 14.906C26.3178 13.8388 26.6667 12.7862 26.6667 11.6665C26.6667 7.9846 23.6818 4.99984 20 4.99984C16.3181 4.99984 13.3333 7.9846 13.3333 11.6665C13.3333 13.8462 14.3777 15.7816 16.0003 17.0007L13.9981 19.6657C13.0961 18.988 12.3119 18.1603 11.6827 17.2197Z" fill="#1D828E"/>
</svg>