<svg width="40" height="40" viewBox="0 0 40 40" fill="none" xmlns="http://www.w3.org/2000/svg">
    <path d="M28.3337 3.3335V6.66683L21.667 6.66516V10.0002H26.667V13.3335C30.3488 13.3335 33.3337 16.3183 33.3337 20.0002V33.3335C33.3337 35.1745 31.8413 36.6668 30.0003 36.6668H10.0003C8.15938 36.6668 6.66699 35.1745 6.66699 33.3335V20.0002C6.66699 16.3183 9.65176 13.3335 13.3337 13.3335V10.0002H18.3337V6.66516L12.5003 6.66683C11.4503 6.66683 10.217 7.4835 8.83366 9.3335L6.16699 7.3335C8.11699 4.7335 10.217 3.3335 12.5003 3.3335H28.3337ZM26.667 16.6668H13.3337C11.4927 16.6668 10.0003 18.1592 10.0003 20.0002V33.3335H30.0003V20.0002C30.0003 18.1592 28.508 16.6668 26.667 16.6668ZM21.667 20.0002V23.3335H25.0003V26.6668H21.6653L21.667 30.0002H18.3337L18.332 26.6668H15.0003V23.3335H18.3337V20.0002H21.667Z" fill="#1D828E"/>
</svg>