<svg width="23" height="23" viewBox="0 0 23 23" fill="none" xmlns="http://www.w3.org/2000/svg">
    <g clip-path="url(#clip0_226_8441)">
        <path d="M10.5417 1.9165C15.3027 1.9165 19.1667 5.7805 19.1667 10.5415C19.1667 15.3025 15.3027 19.1665 10.5417 19.1665C5.78075 19.1665 1.91675 15.3025 1.91675 10.5415C1.91675 5.7805 5.78075 1.9165 10.5417 1.9165ZM10.5417 17.2498C14.2476 17.2498 17.2501 14.2474 17.2501 10.5415C17.2501 6.83467 14.2476 3.83317 10.5417 3.83317C6.83491 3.83317 3.83341 6.83467 3.83341 10.5415C3.83341 14.2474 6.83491 17.2498 10.5417 17.2498ZM18.6732 17.3179L21.3843 20.028L20.0283 21.3841L17.3181 18.673L18.6732 17.3179Z" fill="white"/>
    </g>
    <defs>
        <clipPath id="clip0_226_8441">
            <rect width="23" height="23" fill="white"/>
        </clipPath>
    </defs>
</svg>
