<svg width="23" height="23" viewBox="0 0 23 23" fill="none" xmlns="http://www.w3.org/2000/svg">
    <path d="M1.91675 11.5001C1.91675 10.6716 2.02188 9.86763 2.21953 9.10087C3.26438 9.15504 4.30154 8.63497 4.86056 7.66674C5.41914 6.69923 5.35147 5.54201 4.78332 4.66446C5.92597 3.54156 7.34889 2.70295 8.93753 2.26318C9.41302 3.19518 10.382 3.8334 11.5001 3.8334C12.6182 3.8334 13.5871 3.19518 14.0627 2.26318C15.6513 2.70295 17.0742 3.54156 18.2168 4.66446C17.6487 5.54201 17.581 6.69923 18.1396 7.66674C18.6986 8.63497 19.7358 9.15504 20.7807 9.10087C20.9783 9.86763 21.0834 10.6716 21.0834 11.5001C21.0834 12.3285 20.9783 13.1325 20.7807 13.8992C19.7358 13.8451 18.6986 14.3652 18.1396 15.3334C17.581 16.3009 17.6487 17.4581 18.2168 18.3357C17.0742 19.4585 15.6513 20.2972 14.0627 20.7369C13.5871 19.805 12.6182 19.1667 11.5001 19.1667C10.382 19.1667 9.41302 19.805 8.93753 20.7369C7.34889 20.2972 5.92597 19.4585 4.78332 18.3357C5.35147 17.4581 5.41914 16.3009 4.86056 15.3334C4.30154 14.3652 3.26438 13.8451 2.21953 13.8992C2.02188 13.1325 1.91675 12.3285 1.91675 11.5001ZM6.52044 14.3751C7.12428 15.421 7.29739 16.6234 7.06125 17.752C7.45205 18.0301 7.86805 18.2711 8.30393 18.4713C9.16343 17.7018 10.2918 17.2501 11.5001 17.2501C12.7083 17.2501 13.8367 17.7018 14.6962 18.4713C15.1321 18.2711 15.5481 18.0301 15.9389 17.752C15.7028 16.6234 15.8758 15.421 16.4798 14.3751C17.0835 13.3292 18.0383 12.5782 19.1337 12.2183C19.1556 11.9808 19.1667 11.7414 19.1667 11.5001C19.1667 11.2588 19.1556 11.0193 19.1337 10.7819C18.0383 10.422 17.0835 9.67098 16.4798 8.62507C15.8758 7.57917 15.7028 6.37678 15.9389 5.24812C15.5481 4.97004 15.1321 4.72911 14.6962 4.52887C13.8367 5.29833 12.7083 5.75007 11.5001 5.75007C10.2918 5.75007 9.16343 5.29833 8.30393 4.52887C7.86805 4.72911 7.45205 4.97004 7.06125 5.24812C7.29739 6.37678 7.12428 7.57917 6.52044 8.62507C5.9166 9.67098 4.96189 10.422 3.86649 10.7819C3.8445 11.0193 3.83341 11.2588 3.83341 11.5001C3.83341 11.7414 3.8445 11.9808 3.86649 12.2183C4.96189 12.5782 5.9166 13.3292 6.52044 14.3751ZM11.5001 14.3751C9.91222 14.3751 8.62508 13.0879 8.62508 11.5001C8.62508 9.91228 9.91222 8.62507 11.5001 8.62507C13.0879 8.62507 14.3751 9.91228 14.3751 11.5001C14.3751 13.0879 13.0879 14.3751 11.5001 14.3751ZM11.5001 12.4584C12.0294 12.4584 12.4584 12.0293 12.4584 11.5001C12.4584 10.9708 12.0294 10.5417 11.5001 10.5417C10.9708 10.5417 10.5417 10.9708 10.5417 11.5001C10.5417 12.0293 10.9708 12.4584 11.5001 12.4584Z" fill="white"/>
</svg>
