<svg width="23" height="23" viewBox="0 0 23 23" fill="none" xmlns="http://www.w3.org/2000/svg">
    <path d="M3.85623 3.62544C3.95368 3.18697 4.34258 2.875 4.79175 2.875H18.2084C18.6576 2.875 19.0465 3.18697 19.1439 3.62544L21.0606 12.2505C21.0757 12.3187 21.0834 12.3884 21.0834 12.4583V19.1667C21.0834 19.696 20.6544 20.125 20.1251 20.125H2.87508C2.34581 20.125 1.91675 19.696 1.91675 19.1667V12.4583C1.91675 12.3884 1.92441 12.3187 1.93957 12.2505L3.85623 3.62544ZM5.56049 4.79167L4.06976 11.5H8.62508C8.62508 13.0879 9.91222 14.375 11.5001 14.375C13.0879 14.375 14.3751 13.0879 14.3751 11.5H18.9304L17.4396 4.79167H5.56049ZM15.8931 13.4167C15.1536 15.109 13.465 16.2917 11.5001 16.2917C9.53519 16.2917 7.84653 15.109 7.10712 13.4167H3.83341V18.2083H19.1667V13.4167H15.8931Z" fill="white"/>
</svg>
