<svg width="23" height="23" viewBox="0 0 23 23" fill="none" xmlns="http://www.w3.org/2000/svg">
    <path d="M11.501 4.33984C13.7522 2.31917 17.2309 2.38625 19.3992 4.55914C21.5677 6.73202 21.6421 10.1938 19.6254 12.4516L11.5 20.5898L3.37474 12.4516C1.35809 10.1938 1.43347 6.72655 3.60088 4.55914C5.77075 2.38927 9.24339 2.31617 11.501 4.33984ZM18.0426 5.91301C16.606 4.47344 14.2865 4.41505 12.7814 5.76617L11.5019 6.91461L10.2218 5.76707C8.71227 4.41406 6.39701 4.47358 4.95617 5.91442C3.5285 7.34209 3.45683 9.62866 4.77251 11.1389L11.5 17.877L18.2277 11.1389C19.5438 9.62809 19.4725 7.34587 18.0426 5.91301Z" fill="white"/>
</svg>
