<svg width="40" height="40" viewBox="0 0 40 40" fill="none" xmlns="http://www.w3.org/2000/svg">
    <path d="M6.66671 6.6665H13.3334V9.99984H6.66671V6.6665ZM26.6667 31.6665H33.3334V34.9998H26.6667V31.6665ZM3.33337 14.9998H11.6667V18.3332H3.33337V14.9998ZM15 14.9998H20V18.3332H15V14.9998ZM23.3334 14.9998H33.3334V18.3332H23.3334V14.9998ZM6.66671 23.3332H16.6667V26.6665H6.66671V23.3332ZM20 23.3332H25V26.6665H20V23.3332ZM28.3334 23.3332H36.6667V26.6665H28.3334V23.3332ZM16.6667 6.6665H36.6667V9.99984H16.6667V6.6665ZM3.33337 31.6665H23.3334V34.9998H3.33337V31.6665Z" fill="#1D828E"/>
</svg>