<svg width="40" height="40" viewBox="0 0 40 40" fill="none" xmlns="http://www.w3.org/2000/svg">
    <path d="M35 33.3335H38.3334V36.6668H1.66669V33.3335H5.00002V5.00016C5.00002 4.0797 5.74622 3.3335 6.66669 3.3335H33.3334C34.2539 3.3335 35 4.0797 35 5.00016V33.3335ZM31.6667 33.3335V6.66683H8.33335V33.3335H31.6667ZM13.3334 18.3335H18.3334V21.6668H13.3334V18.3335ZM13.3334 11.6668H18.3334V15.0002H13.3334V11.6668ZM13.3334 25.0002H18.3334V28.3335H13.3334V25.0002ZM21.6667 25.0002H26.6667V28.3335H21.6667V25.0002ZM21.6667 18.3335H26.6667V21.6668H21.6667V18.3335ZM21.6667 11.6668H26.6667V15.0002H21.6667V11.6668Z" fill="#1D828E"/>
</svg>