<svg width="40" height="40" viewBox="0 0 40 40" fill="none" xmlns="http://www.w3.org/2000/svg">
    <path d="M32.0462 31.2202L34.9925 28.274L37.9387 31.2202C39.5658 32.8473 39.5658 35.4857 37.9387 37.1128C36.3115 38.74 33.6733 38.74 32.0462 37.1128C30.419 35.4857 30.419 32.8473 32.0462 31.2202ZM14.7977 1.79932L33.6538 20.6555C34.3047 21.3063 34.3047 22.3617 33.6538 23.0125L19.5117 37.1547C18.8608 37.8055 17.8055 37.8055 17.1547 37.1547L3.01256 23.0125C2.3617 22.3617 2.3617 21.3063 3.01256 20.6555L15.9762 7.69187L12.4407 4.15633L14.7977 1.79932ZM18.3332 10.0489L6.5481 21.834L18.3332 33.6192L30.1183 21.834L18.3332 10.0489Z" fill="#1D828E"/>
</svg>