<svg width="40" height="40" viewBox="0 0 40 40" fill="none" xmlns="http://www.w3.org/2000/svg">
    <path d="M20 6.66683C12.6362 6.66683 6.66668 12.6364 6.66668 20.0002H11.6667C13.5076 20.0002 15 21.4925 15 23.3335V31.6668C15 33.5078 13.5076 35.0002 11.6667 35.0002H6.66668C4.82573 35.0002 3.33334 33.5078 3.33334 31.6668V20.0002C3.33334 10.7954 10.7953 3.3335 20 3.3335C29.2047 3.3335 36.6667 10.7954 36.6667 20.0002V31.6668C36.6667 33.5078 35.1743 35.0002 33.3333 35.0002H28.3333C26.4923 35.0002 25 33.5078 25 31.6668V23.3335C25 21.4925 26.4923 20.0002 28.3333 20.0002H33.3333C33.3333 12.6364 27.3638 6.66683 20 6.66683ZM6.66668 23.3335V31.6668H11.6667V23.3335H6.66668ZM28.3333 23.3335V31.6668H33.3333V23.3335H28.3333Z" fill="#1D828E"/>
</svg>
