<svg width="40" height="40" viewBox="0 0 40 40" fill="none" xmlns="http://www.w3.org/2000/svg">
    <path d="M21.6667 10.0002V6.66683H8.33332V3.3335H25V10.0002H26.6667C27.5872 10.0002 28.3333 10.7464 28.3333 11.6668V15.3335L37.0222 9.25135C37.3992 8.98741 37.9188 9.07911 38.1827 9.45616C38.2807 9.59623 38.3333 9.76306 38.3333 9.93405V30.0663C38.3333 30.5265 37.9602 30.8997 37.5 30.8997C37.329 30.8997 37.1622 30.847 37.0222 30.749L28.3333 24.6668V31.6668C28.3333 32.5873 27.5872 33.3335 26.6667 33.3335H3.33332C2.41286 33.3335 1.66666 32.5873 1.66666 31.6668V11.6668C1.66666 10.7464 2.41286 10.0002 3.33332 10.0002H21.6667ZM25 13.3335H4.99999V30.0002H25V13.3335ZM28.3333 20.598L35 25.2647V14.7357L28.3333 19.4023V20.598ZM8.33332 16.6668H11.6667V20.0002H8.33332V16.6668Z" fill="#1D828E"/>
</svg>
