<svg width="40" height="40" viewBox="0 0 40 40" fill="none" xmlns="http://www.w3.org/2000/svg">
    <path d="M28.3333 6.6665C33.8562 6.6665 38.3333 11.1437 38.3333 16.6665V23.3332C38.3333 28.856 33.8562 33.3332 28.3333 33.3332H11.6667C6.14381 33.3332 1.66666 28.856 1.66666 23.3332V16.6665C1.66666 11.1437 6.14381 6.6665 11.6667 6.6665H28.3333ZM28.3333 9.99984H11.6667C8.09632 9.99984 5.18152 12.8065 5.00816 16.3338L4.99999 16.6665V23.3332C4.99999 26.9035 7.80661 29.8183 11.3339 29.9917L11.6667 29.9998H28.3333C31.9037 29.9998 34.8185 27.1932 34.9918 23.6658L35 23.3332V16.6665C35 13.0962 32.1933 10.1814 28.666 10.008L28.3333 9.99984ZM16.6667 14.9998V18.3332H20V21.6665H16.665L16.6667 24.9998H13.3333L13.3317 21.6665H9.99999V18.3332H13.3333V14.9998H16.6667ZM30 21.6665V24.9998H26.6667V21.6665H30ZM26.6667 14.9998V18.3332H23.3333V14.9998H26.6667Z" fill="#1D828E"/>
</svg>
