<svg width="40" height="40" viewBox="0 0 40 40" fill="none" xmlns="http://www.w3.org/2000/svg">
    <path d="M9.99999 6.66683V33.3335H30V6.66683H9.99999ZM8.33332 3.3335H31.6667C32.5872 3.3335 33.3333 4.0797 33.3333 5.00016V35.0002C33.3333 35.9207 32.5872 36.6668 31.6667 36.6668H8.33332C7.41286 36.6668 6.66666 35.9207 6.66666 35.0002V5.00016C6.66666 4.0797 7.41286 3.3335 8.33332 3.3335ZM20 28.3335C20.9205 28.3335 21.6667 29.0797 21.6667 30.0002C21.6667 30.9207 20.9205 31.6668 20 31.6668C19.0795 31.6668 18.3333 30.9207 18.3333 30.0002C18.3333 29.0797 19.0795 28.3335 20 28.3335Z" fill="#1D828E"/>
</svg>
