<svg width="40" height="40" viewBox="0 0 40 40" fill="none" xmlns="http://www.w3.org/2000/svg">
    <path d="M3.33334 10.0016C3.33334 9.08035 4.09219 8.3335 4.98634 8.3335H35.0137C35.9267 8.3335 36.6667 9.07455 36.6667 10.0016V33.332C36.6667 34.2533 35.9078 35.0002 35.0137 35.0002H4.98634C4.07343 35.0002 3.33334 34.2592 3.33334 33.332V10.0016ZM6.66668 11.6668V31.6668H33.3333V11.6668H6.66668ZM23.3333 26.6668C26.0948 26.6668 28.3333 24.4283 28.3333 21.6668C28.3333 18.9053 26.0948 16.6668 23.3333 16.6668C20.5718 16.6668 18.3333 18.9053 18.3333 21.6668C18.3333 24.4283 20.5718 26.6668 23.3333 26.6668ZM23.3333 30.0002C18.731 30.0002 15 26.2692 15 21.6668C15 17.0645 18.731 13.3335 23.3333 13.3335C27.9357 13.3335 31.6667 17.0645 31.6667 21.6668C31.6667 26.2692 27.9357 30.0002 23.3333 30.0002ZM6.66668 3.3335H16.6667V6.66683H6.66668V3.3335Z" fill="#1D828E"/>
</svg>
