<svg width="40" height="40" viewBox="0 0 40 40" fill="none" xmlns="http://www.w3.org/2000/svg">
    <path d="M18.3333 31.6667V15H6.66668V31.6667H18.3333ZM18.3333 11.6667V6.66667C18.3333 5.7462 19.0795 5 20 5H35C35.9205 5 36.6667 5.7462 36.6667 6.66667V33.3333C36.6667 34.2538 35.9205 35 35 35H5.00001C4.07954 35 3.33334 34.2538 3.33334 33.3333V13.3333C3.33334 12.4129 4.07954 11.6667 5.00001 11.6667H18.3333ZM21.6667 8.33333V31.6667H33.3333V8.33333H21.6667ZM8.33334 26.6667H16.6667V30H8.33334V26.6667ZM23.3333 26.6667H31.6667V30H23.3333V26.6667ZM23.3333 21.6667H31.6667V25H23.3333V21.6667ZM23.3333 16.6667H31.6667V20H23.3333V16.6667ZM8.33334 21.6667H16.6667V25H8.33334V21.6667Z" fill="#1D828E"/>
</svg>
