<svg width="40" height="40" viewBox="0 0 40 40" fill="none" xmlns="http://www.w3.org/2000/svg">
    <path d="M28.3352 6.6665C32.9375 6.6665 36.6685 10.3975 36.6685 14.9998C36.6685 19.6022 32.9375 23.3332 28.3352 23.3332C27.8277 23.3332 27.3308 23.2878 26.8485 23.201L22.4295 26.5147C22.4772 26.8362 22.5018 27.1652 22.5018 27.4998C22.5018 31.1817 19.517 34.1665 15.8351 34.1665C12.1532 34.1665 9.16843 31.1817 9.16843 27.4998C9.16843 27.204 9.1877 26.9127 9.22505 26.6272L2.8483 24.0503L4.097 20.9598L10.4751 23.5348C11.6897 21.8957 13.6383 20.8332 15.8351 20.8332C16.1063 20.8332 16.3737 20.8493 16.6365 20.8808L20.0377 15.7792C20.014 15.5226 20.0018 15.2626 20.0018 14.9998C20.0018 10.3975 23.7327 6.6665 28.3352 6.6665ZM15.8351 24.1665C15.0613 24.1665 14.349 24.4302 13.7833 24.8727L16.4594 25.9545C17.3128 26.2993 17.7252 27.2707 17.3803 28.1242C17.0357 28.9777 16.0642 29.39 15.2108 29.0452L12.5339 27.9643C12.7599 29.5853 14.1518 30.8332 15.8351 30.8332C17.676 30.8332 19.1685 29.3408 19.1685 27.4998C19.1685 25.6588 17.676 24.1665 15.8351 24.1665ZM21.4412 19.683L19.8035 22.1423C20.2768 22.4937 20.7022 22.9062 21.0675 23.3682L23.3348 21.6668C22.5998 21.1148 21.9592 20.444 21.4412 19.683ZM28.3352 9.99984C25.5737 9.99984 23.3352 12.2384 23.3352 14.9998C23.3352 17.7613 25.5737 19.9998 28.3352 19.9998C31.0965 19.9998 33.3352 17.7613 33.3352 14.9998C33.3352 12.2384 31.0965 9.99984 28.3352 9.99984ZM28.3352 11.6665C30.176 11.6665 31.6685 13.1589 31.6685 14.9998C31.6685 16.8408 30.176 18.3332 28.3352 18.3332C26.4942 18.3332 25.0018 16.8408 25.0018 14.9998C25.0018 13.1589 26.4942 11.6665 28.3352 11.6665Z" fill="#1D828E"/>
</svg>
