<svg width="18" height="18" viewBox="0 0 18 18" fill="none" xmlns="http://www.w3.org/2000/svg">
    <path d="M12.375 2.25C14.6532 2.25 16.5 4.125 16.5 6.75C16.5 12 10.875 15 9 16.125C7.125 15 1.5 12 1.5 6.75C1.5 4.125 3.375 2.25 5.625 2.25C7.01998 2.25 8.25 3 9 3.75C9.75 3 10.98 2.25 12.375 2.25ZM9.70042 13.9529C10.3616 13.5364 10.9575 13.1216 11.5162 12.6772C13.7503 10.8998 15 8.95762 15 6.75C15 4.98057 13.8472 3.75 12.375 3.75C11.5681 3.75 10.6945 4.17683 10.0606 4.81066L9 5.87132L7.93935 4.81066C7.30551 4.17683 6.43192 3.75 5.625 3.75C4.16929 3.75 3 4.99238 3 6.75C3 8.95762 4.2497 10.8998 6.48385 12.6772C7.0425 13.1216 7.63837 13.5364 8.29957 13.9529C8.52345 14.0939 8.74582 14.2297 9 14.3814C9.25417 14.2297 9.47655 14.0939 9.70042 13.9529Z" fill="#7B7F86"/>
</svg>
