<svg width="18" height="18" viewBox="0 0 18 18" fill="none" xmlns="http://www.w3.org/2000/svg">
    <path d="M5.46838 15.6181L1.5 16.5L2.38186 12.5316C1.81908 11.4792 1.5 10.2769 1.5 9C1.5 4.85786 4.85786 1.5 9 1.5C13.1421 1.5 16.5 4.85786 16.5 9C16.5 13.1421 13.1421 16.5 9 16.5C7.72312 16.5 6.5208 16.1809 5.46838 15.6181ZM5.68556 14.0332L6.17571 14.2954C7.03686 14.7559 7.99912 15 9 15C12.3137 15 15 12.3137 15 9C15 5.68629 12.3137 3 9 3C5.68629 3 3 5.68629 3 9C3 10.0009 3.24412 10.9631 3.70462 11.8243L3.96672 12.3144L3.47562 14.5243L5.68556 14.0332Z" fill="#7B7F86"/>
</svg>
