<svg width="20" height="20" viewBox="0 0 20 20" fill="none" xmlns="http://www.w3.org/2000/svg">
    <g clip-path="url(#clip0_226_8679)">
        <path d="M5.83342 3.33317V1.6665H14.1667V3.33317H18.3334V4.99984H16.6667V17.4998C16.6667 17.7209 16.579 17.9328 16.4227 18.0891C16.2664 18.2454 16.0544 18.3332 15.8334 18.3332H4.16675C3.94573 18.3332 3.73377 18.2454 3.57749 18.0891C3.42121 17.9328 3.33341 17.7209 3.33341 17.4998V4.99984H1.66675V3.33317H5.83342ZM5.00008 4.99984V16.6665H15.0001V4.99984H5.00008ZM7.50008 7.49984H9.16675V14.1665H7.50008V7.49984ZM10.8334 7.49984H12.5001V14.1665H10.8334V7.49984Z" fill="white"/>
    </g>
    <defs>
        <clipPath id="clip0_226_8679">
            <rect width="20" height="20" fill="white"/>
        </clipPath>
    </defs>
</svg>
