<svg width="40" height="40" viewBox="0 0 40 40" fill="none" xmlns="http://www.w3.org/2000/svg">
    <path d="M35 35H5.00001C4.07954 35 3.33334 34.2538 3.33334 33.3333V20.8113C3.33334 20.3297 3.54169 19.8715 3.90471 19.555L10 14.2406V6.66667C10 5.7462 10.7462 5 11.6667 5H35C35.9205 5 36.6667 5.7462 36.6667 6.66667V33.3333C36.6667 34.2538 35.9205 35 35 35ZM15 31.6667H20V21.5693L13.3333 15.7567L6.66668 21.5693V31.6667H11.6667V25H15V31.6667ZM23.3333 31.6667H33.3333V8.33333H13.3333V11.8788C13.7241 11.8788 14.1148 12.0156 14.4286 12.2892L22.762 19.555C23.125 19.8715 23.3333 20.3297 23.3333 20.8113V31.6667ZM26.6667 18.3333H30V21.6667H26.6667V18.3333ZM26.6667 25H30V28.3333H26.6667V25ZM26.6667 11.6667H30V15H26.6667V11.6667ZM20 11.6667H23.3333V15H20V11.6667Z" fill="#1D828E"/>
</svg>
