<svg width="40" height="40" viewBox="0 0 40 40" fill="none" xmlns="http://www.w3.org/2000/svg">
    <path d="M25.8344 11.5613C29.321 13.5786 31.6667 17.3487 31.6667 21.6665V34.9998H24.7155C24.0292 36.9418 22.177 38.3332 20 38.3332C17.823 38.3332 15.9709 36.9418 15.2846 34.9998H8.33337V21.6665C8.33337 17.3487 10.6791 13.5786 14.1656 11.5613C13.8959 11.0748 13.6853 10.5511 13.5434 9.99984H8.33337V6.6665H13.5434C14.2835 3.79112 16.8937 1.6665 20 1.6665C23.1064 1.6665 25.7165 3.79112 26.4567 6.6665H31.6667V9.99984H26.4567C26.3147 10.5511 26.1042 11.0748 25.8344 11.5613ZM23.4124 14.0616C22.414 14.6575 21.247 14.9998 20 14.9998C18.753 14.9998 17.586 14.6575 16.5878 14.0616C13.6868 15.3652 11.6667 18.28 11.6667 21.6665V31.6665H15V24.9998C15 22.2383 17.2385 19.9998 20 19.9998C22.7615 19.9998 25 22.2383 25 24.9998V31.6665H28.3334V21.6665C28.3334 18.28 26.3132 15.3652 23.4124 14.0616ZM20 23.3332C19.0795 23.3332 18.3334 24.0793 18.3334 24.9998V33.3332C18.3334 34.2537 19.0795 34.9998 20 34.9998C20.9205 34.9998 21.6667 34.2537 21.6667 33.3332V24.9998C21.6667 24.0793 20.9205 23.3332 20 23.3332ZM20 11.6665C21.841 11.6665 23.3334 10.1741 23.3334 8.33317C23.3334 6.49222 21.841 4.99984 20 4.99984C18.159 4.99984 16.6667 6.49222 16.6667 8.33317C16.6667 10.1741 18.159 11.6665 20 11.6665Z" fill="#1D828E"/>
</svg>
