<svg width="40" height="40" viewBox="0 0 40 40" fill="none" xmlns="http://www.w3.org/2000/svg">
    <path d="M31.6667 33.3332H8.33337V34.9998C8.33337 35.9203 7.58717 36.6665 6.66671 36.6665H5.00004C4.07957 36.6665 3.33337 35.9203 3.33337 34.9998V18.3332L7.46754 8.68677C7.99281 7.46115 9.19794 6.6665 10.5314 6.6665H29.4687C30.8022 6.6665 32.0072 7.46115 32.5325 8.68677L36.6667 18.3332V34.9998C36.6667 35.9203 35.9205 36.6665 35 36.6665H33.3334C32.4129 36.6665 31.6667 35.9203 31.6667 34.9998V33.3332ZM33.3334 21.6665H6.66671V29.9998H33.3334V21.6665ZM6.95994 18.3332H33.0402L29.4687 9.99984H10.5314L6.95994 18.3332ZM10.8334 28.3332C9.45266 28.3332 8.33337 27.2138 8.33337 25.8332C8.33337 24.4525 9.45266 23.3332 10.8334 23.3332C12.2141 23.3332 13.3334 24.4525 13.3334 25.8332C13.3334 27.2138 12.2141 28.3332 10.8334 28.3332ZM29.1667 28.3332C27.786 28.3332 26.6667 27.2138 26.6667 25.8332C26.6667 24.4525 27.786 23.3332 29.1667 23.3332C30.5474 23.3332 31.6667 24.4525 31.6667 25.8332C31.6667 27.2138 30.5474 28.3332 29.1667 28.3332Z" fill="#1D828E"/>
</svg>
