<svg width="40" height="40" viewBox="0 0 40 40" fill="none" xmlns="http://www.w3.org/2000/svg">
    <path d="M8.33333 8.32747V13.3275H31.6667V8.32747H8.33333ZM6.66667 4.99414H33.3333C34.2538 4.99414 35 5.74034 35 6.66081V14.9941C35 15.9146 34.2538 16.6608 33.3333 16.6608H6.66667C5.7462 16.6608 5 15.9146 5 14.9941V6.66081C5 5.74034 5.7462 4.99414 6.66667 4.99414ZM10 19.9942H20C20.9205 19.9942 21.6667 20.7403 21.6667 21.6608V26.6608H23.3333V36.6608H16.6667V26.6608H18.3333V23.3275H8.33333C7.41287 23.3275 6.66667 22.5813 6.66667 21.6608V18.3275H10V19.9942ZM29.5537 22.8812L32.5 19.9348L35.4463 22.8812C37.0735 24.5083 37.0735 27.1465 35.4463 28.7737C33.8192 30.401 31.1808 30.401 29.5537 28.7737C27.9265 27.1465 27.9265 24.5083 29.5537 22.8812Z" fill="#1D828E"/>
</svg>
