<svg width="40" height="40" viewBox="0 0 40 40" fill="none" xmlns="http://www.w3.org/2000/svg">
    <path d="M33.3333 3.3335C34.2538 3.3335 35 4.0797 35 5.00016V13.3335C35 14.254 34.2538 15.0002 33.3333 15.0002H25V36.6668C25 37.5873 24.2538 38.3335 23.3333 38.3335H16.6667C15.7462 38.3335 15 37.5873 15 36.6668V15.0002H5.83333C4.91287 15.0002 4.16667 14.254 4.16667 13.3335V9.36355C4.16667 8.73226 4.52333 8.15516 5.08798 7.87285L14.1667 3.3335H33.3333ZM25 6.66683H14.9536L7.5 10.3936V11.6668H18.3333V35.0002H21.6667V11.6668H25V6.66683ZM31.6667 6.66683H28.3333V11.6668H31.6667V6.66683Z" fill="#1D828E"/>
</svg>
