<svg width="40" height="40" viewBox="0 0 40 40" fill="none" xmlns="http://www.w3.org/2000/svg">
    <path d="M33.3333 18.3333H31.6667V11.6667H33.3333V6.66667H36.6667V11.6667H38.3333V18.3333H36.6667V30C36.6667 32.7615 34.4282 35 31.6667 35C28.9052 35 26.6667 32.7615 26.6667 30V23.3333H23.3333V31.6667H25V35H3.33334V31.6667H5V6.66667C5 5.7462 5.7462 5 6.66667 5H21.6667C22.5872 5 23.3333 5.7462 23.3333 6.66667V20H26.6667C28.5077 20 30 21.4923 30 23.3333V30C30 30.9205 30.7462 31.6667 31.6667 31.6667C32.5872 31.6667 33.3333 30.9205 33.3333 30V18.3333ZM20 31.6667V8.33333H8.33334V31.6667H20ZM15 18.3333H20L13.3333 28.3333V21.6667H8.33334L15 11.6667V18.3333Z" fill="#1D828E"/>
</svg>
