<svg width="40" height="40" viewBox="0 0 40 40" fill="none" xmlns="http://www.w3.org/2000/svg">
    <path d="M21.6667 35.0002V39.1668L16.6667 35.8335L11.6667 39.1668V35.0002H10.8333C7.61167 35.0002 5 32.3885 5 29.1668V8.3335C5 5.57208 7.23858 3.3335 10 3.3335H33.3333C34.2538 3.3335 35 4.0797 35 5.00016V33.3335C35 34.254 34.2538 35.0002 33.3333 35.0002H21.6667ZM21.6667 31.6668H31.6667V26.6668H10.8333C9.45262 26.6668 8.33333 27.7862 8.33333 29.1668C8.33333 30.5475 9.45262 31.6668 10.8333 31.6668H11.6667V28.3335H21.6667V31.6668ZM31.6667 23.3335V6.66683H10V23.3925C10.2722 23.3537 10.5504 23.3335 10.8333 23.3335H31.6667ZM11.6667 8.3335H15V11.6668H11.6667V8.3335ZM11.6667 13.3335H15V16.6668H11.6667V13.3335ZM11.6667 18.3335H15V21.6668H11.6667V18.3335Z" fill="#1D828E"/>
</svg>
