<svg width="24" height="23" viewBox="0 0 24 23" fill="none" xmlns="http://www.w3.org/2000/svg">
    <path d="M4 21.083C4 16.8488 7.58172 13.4163 12 13.4163C16.4183 13.4163 20 16.8488 20 21.083H18C18 17.9074 15.3137 15.333 12 15.333C8.68629 15.333 6 17.9074 6 21.083H4ZM12 12.458C8.685 12.458 6 9.88488 6 6.70801C6 3.53113 8.685 0.958008 12 0.958008C15.315 0.958008 18 3.53113 18 6.70801C18 9.88488 15.315 12.458 12 12.458ZM12 10.5413C14.21 10.5413 16 8.82592 16 6.70801C16 4.59009 14.21 2.87467 12 2.87467C9.79 2.87467 8 4.59009 8 6.70801C8 8.82592 9.79 10.5413 12 10.5413Z" fill="#39929C"/>
</svg>
