<svg width="40" height="40" viewBox="0 0 40 40" fill="none" xmlns="http://www.w3.org/2000/svg">
    <path d="M21.6634 33.3333H31.6634V26.6667H24.9967V23.3333H31.6634V10H28.3301V18.3333L21.6634 15.6667V33.3333ZM18.3301 33.3333V15.6667L11.6635 18.3333V10H8.33016V33.3333H18.3301ZM11.6635 6.66667V5H28.3301V6.66667H33.3301C34.2506 6.66667 34.9967 7.41287 34.9967 8.33333V35C34.9967 35.9205 34.2506 36.6667 33.3301 36.6667H6.66349C5.74301 36.6667 4.99683 35.9205 4.99683 35V8.33333C4.99683 7.41287 5.74301 6.66667 6.66349 6.66667H11.6635ZM19.9967 13.3333L25.8301 8.33333H14.1635L19.9967 13.3333Z" fill="#1D828E"/>
</svg>