<svg width="40" height="40" viewBox="0 0 40 40" fill="none" xmlns="http://www.w3.org/2000/svg">
    <path d="M15.0423 1.6665C14.1286 1.6665 13.3116 2.09178 12.7181 2.6333C12.1246 3.17482 11.686 3.84138 11.3118 4.59945C10.6992 5.84063 10.2734 7.36197 10.0065 9.06885L5.52083 10.4002L2.2168 34.3358L24.1797 38.3625L24.4889 38.3006L37.806 35.6867L33.4831 7.66585L25.6445 4.43343L23.9681 4.93148C23.6988 4.39562 23.3977 3.89704 23.0469 3.45687C22.2606 2.47038 21.1259 1.6665 19.7559 1.6665C18.7945 1.6665 18.009 2.12058 17.3177 2.69841C16.6954 2.12836 15.9727 1.6665 15.0423 1.6665ZM15.0423 4.99984C14.9348 4.99984 15.0795 4.95699 15.4264 5.45231C15.6853 5.82189 15.9631 6.47276 16.2174 7.22966L13.6165 8.00114C13.8159 7.23147 14.0528 6.57511 14.3001 6.07406C14.5461 5.57567 14.8043 5.24017 14.9642 5.09424C15.1241 4.94831 15.1143 4.99984 15.0423 4.99984ZM19.7559 4.99984C19.8258 4.99984 20.0428 5.03601 20.4395 5.53369C20.5126 5.62546 20.5885 5.7938 20.6641 5.9113L19.3555 6.29867C19.2433 6.07133 19.1298 5.84896 19.0332 5.60205C19.4271 5.09768 19.685 4.99984 19.7559 4.99984ZM24.2188 8.33317L22.6172 34.6873L5.95703 31.634L8.52865 12.9849L24.2188 8.33317ZM27.5293 8.81494L30.4753 10.0291L34.0234 33.0337L25.9635 34.6157L27.5293 8.81494ZM17.3177 15.0063C13.361 15.0063 11.4095 17.6761 11.4095 20.4328C11.4095 23.7261 14.6289 23.8105 14.6289 25.8039C14.6289 26.2889 14.2856 26.9497 13.4473 26.9497C12.1789 26.9497 10.6738 25.6313 10.6738 25.6313L9.90234 28.1965C9.90234 28.1965 11.3421 29.9998 14.2188 29.9998C16.6004 29.9998 18.3626 28.1797 18.3626 25.3547C18.3626 21.768 14.4238 21.1798 14.4238 19.6548C14.4238 19.3781 14.5127 18.2485 16.276 18.2485C17.4577 18.2485 18.4505 18.7856 18.4505 18.7856L19.5475 15.4425C19.5475 15.4425 18.7927 14.9897 17.3177 15.0063Z" fill="#1D828E"/>
</svg>