<svg width="40" height="40" viewBox="0 0 40 40" fill="none" xmlns="http://www.w3.org/2000/svg">
    <path d="M20.0001 40C13.3751 40 5.78007 37.4517 5.03173 33.655C4.99173 33.4283 4.9784 33.355 5.00007 21.6633C5.00007 21.0333 5.3584 20.4567 5.92173 20.175C7.98007 19.1467 10.0001 14.1067 10.0001 10V1.66667C10.0001 0.745 10.7467 0 11.6667 0H16.6667C17.5867 0 18.3334 0.745 18.3334 1.66667V6.66667H21.6667V1.66667C21.6667 0.745 22.4134 0 23.3334 0H28.3334C29.2534 0 30.0001 0.745 30.0001 1.66667V10C30.0001 14.1067 32.0201 19.1467 34.0784 20.175C34.6417 20.4567 35.0001 21.0333 35.0001 21.6633C35.0217 33.355 35.0084 33.4283 34.9734 33.625C34.2201 37.4517 26.6251 40 20.0001 40ZM8.3284 33.1067C8.7584 34.17 13.6251 36.6667 20.0001 36.6667C26.3501 36.6667 31.2017 34.1917 31.6717 33.09C31.6801 32.0233 31.6751 26.6483 31.6684 22.58C28.5551 20.2267 26.6667 14.48 26.6667 10V3.33333H25.0001V8.33333C25.0001 9.255 24.2534 10 23.3334 10H16.6667C15.7467 10 15.0001 9.255 15.0001 8.33333V3.33333H13.3334V10C13.3334 14.48 11.4451 20.2267 8.33173 22.5817C8.32507 26.67 8.3184 32.0833 8.3284 33.1067Z" fill="#1D828E"/>
</svg>