<svg width="17" height="22" viewBox="0 0 17 22" fill="none" xmlns="http://www.w3.org/2000/svg">
    <path d="M8.65539 6.6203C7.85239 6.6203 6.60939 5.7073 5.30039 5.7403C3.57339 5.7623 1.98939 6.7413 1.09839 8.2923C-0.69461 11.4053 0.63639 16.0033 2.38539 18.5333C3.24339 19.7653 4.25539 21.1513 5.59739 21.1073C6.88439 21.0523 7.36839 20.2713 8.93039 20.2713C10.4814 20.2713 10.9214 21.1073 12.2854 21.0743C13.6714 21.0523 14.5514 19.8203 15.3984 18.5773C16.3774 17.1473 16.7844 15.7613 16.8064 15.6843C16.7734 15.6733 14.1114 14.6503 14.0784 11.5703C14.0564 8.9963 16.1794 7.7643 16.2784 7.7093C15.0684 5.9383 13.2094 5.7403 12.5604 5.6963C10.8664 5.5643 9.44739 6.6203 8.65539 6.6203ZM11.5154 4.0243C12.2304 3.1663 12.7034 1.9673 12.5714 0.779297C11.5484 0.823297 10.3164 1.4613 9.57939 2.3193C8.91939 3.0783 8.34739 4.2993 8.50139 5.4653C9.63439 5.5533 10.8004 4.8823 11.5154 4.0243Z" fill="#1D828E"/>
</svg>
