<svg width="30" height="30" viewBox="0 0 30 30" fill="none" xmlns="http://www.w3.org/2000/svg">
    <path d="M6.25 6.24561V9.99561H23.75V6.24561H6.25ZM5 3.74561H25C25.6904 3.74561 26.25 4.30526 26.25 4.99561V11.2456C26.25 11.936 25.6904 12.4956 25 12.4956H5C4.30965 12.4956 3.75 11.936 3.75 11.2456V4.99561C3.75 4.30526 4.30965 3.74561 5 3.74561ZM7.5 14.9956H15C15.6904 14.9956 16.25 15.5553 16.25 16.2456V19.9956H17.5V27.4956H12.5V19.9956H13.75V17.4956H6.25C5.55965 17.4956 5 16.936 5 16.2456V13.7456H7.5V14.9956ZM22.1653 17.1609L24.375 14.9511L26.5847 17.1609C27.8051 18.3813 27.8051 20.3599 26.5847 21.5803C25.3644 22.8008 23.3856 22.8008 22.1653 21.5803C20.9449 20.3599 20.9449 18.3813 22.1653 17.1609Z" fill="#FEAD5E"/>
</svg>
