<svg width="12" height="8" viewBox="0 0 12 8" fill="none" xmlns="http://www.w3.org/2000/svg">
    <path d="M4.66667 7.33333C4.66667 7.70152 4.96514 8 5.33333 8H6.66667C7.03486 8 7.33333 7.70152 7.33333 7.33333C7.33333 6.96514 7.03486 6.66667 6.66667 6.66667H5.33333C4.96514 6.66667 4.66667 6.96514 4.66667 7.33333ZM0.666667 0C0.298477 0 0 0.298477 0 0.666667C0 1.03486 0.298477 1.33333 0.666667 1.33333H11.3333C11.7015 1.33333 12 1.03486 12 0.666667C12 0.298477 11.7015 0 11.3333 0H0.666667ZM2 4C2 4.36819 2.29848 4.66667 2.66667 4.66667H9.33333C9.70152 4.66667 10 4.36819 10 4C10 3.63181 9.70152 3.33333 9.33333 3.33333H2.66667C2.29848 3.33333 2 3.63181 2 4Z" fill="#828282"/>
</svg>
