<svg width="30" height="30" viewBox="0 0 30 30" fill="none" xmlns="http://www.w3.org/2000/svg">
    <path d="M23.75 25H6.25V26.25C6.25 26.9404 5.69035 27.5 5 27.5H3.75C3.05965 27.5 2.5 26.9404 2.5 26.25V13.75L5.60063 6.5152C5.99458 5.59599 6.89843 5 7.89849 5H22.1015C23.1016 5 24.0054 5.59599 24.3994 6.5152L27.5 13.75V26.25C27.5 26.9404 26.9404 27.5 26.25 27.5H25C24.3096 27.5 23.75 26.9404 23.75 26.25V25ZM25 16.25H5V22.5H25V16.25ZM5.21993 13.75H24.7801L22.1015 7.5H7.89849L5.21993 13.75ZM8.125 21.25C7.08946 21.25 6.25 20.4105 6.25 19.375C6.25 18.3395 7.08946 17.5 8.125 17.5C9.16054 17.5 10 18.3395 10 19.375C10 20.4105 9.16054 21.25 8.125 21.25ZM21.875 21.25C20.8395 21.25 20 20.4105 20 19.375C20 18.3395 20.8395 17.5 21.875 17.5C22.9105 17.5 23.75 18.3395 23.75 19.375C23.75 20.4105 22.9105 21.25 21.875 21.25Z" fill="#FEAD5E"/>
</svg>
