<svg width="16" height="16" viewBox="0 0 16 16" fill="none" xmlns="http://www.w3.org/2000/svg">
    <path d="M5 7.6665C3.34315 7.6665 2 6.32336 2 4.6665C2 3.00965 3.34315 1.6665 5 1.6665C6.65685 1.6665 8 3.00965 8 4.6665C8 6.32336 6.65685 7.6665 5 7.6665ZM5 14.3332C3.34315 14.3332 2 12.99 2 11.3332C2 9.6763 3.34315 8.33317 5 8.33317C6.65685 8.33317 8 9.6763 8 11.3332C8 12.99 6.65685 14.3332 5 14.3332ZM11.6667 7.6665C10.0098 7.6665 8.66667 6.32336 8.66667 4.6665C8.66667 3.00965 10.0098 1.6665 11.6667 1.6665C13.3235 1.6665 14.6667 3.00965 14.6667 4.6665C14.6667 6.32336 13.3235 7.6665 11.6667 7.6665ZM11.6667 14.3332C10.0098 14.3332 8.66667 12.99 8.66667 11.3332C8.66667 9.6763 10.0098 8.33317 11.6667 8.33317C13.3235 8.33317 14.6667 9.6763 14.6667 11.3332C14.6667 12.99 13.3235 14.3332 11.6667 14.3332ZM5 6.33317C5.92047 6.33317 6.66667 5.58698 6.66667 4.6665C6.66667 3.74603 5.92047 2.99984 5 2.99984C4.07953 2.99984 3.33333 3.74603 3.33333 4.6665C3.33333 5.58698 4.07953 6.33317 5 6.33317ZM5 12.9998C5.92047 12.9998 6.66667 12.2536 6.66667 11.3332C6.66667 10.4127 5.92047 9.6665 5 9.6665C4.07953 9.6665 3.33333 10.4127 3.33333 11.3332C3.33333 12.2536 4.07953 12.9998 5 12.9998ZM11.6667 6.33317C12.5871 6.33317 13.3333 5.58698 13.3333 4.6665C13.3333 3.74603 12.5871 2.99984 11.6667 2.99984C10.7462 2.99984 10 3.74603 10 4.6665C10 5.58698 10.7462 6.33317 11.6667 6.33317ZM11.6667 12.9998C12.5871 12.9998 13.3333 12.2536 13.3333 11.3332C13.3333 10.4127 12.5871 9.6665 11.6667 9.6665C10.7462 9.6665 10 10.4127 10 11.3332C10 12.2536 10.7462 12.9998 11.6667 12.9998Z" fill="#828282"/>
</svg>
