<svg width="16" height="16" viewBox="0 0 16 16" fill="none" xmlns="http://www.w3.org/2000/svg">
    <path d="M5.891 6.90167C6.68418 8.2754 7.83818 9.41305 9.23165 10.195L9.97891 9.16333C10.0991 8.99745 10.2768 8.88073 10.4783 8.83528C10.6799 8.78982 10.8914 8.81878 11.0727 8.91667C12.2683 9.56077 13.5885 9.94815 14.9468 10.0533C15.1588 10.0699 15.3566 10.1646 15.5009 10.3186C15.6452 10.4726 15.7253 10.6745 15.7253 10.8842V14.6025C15.7254 14.8088 15.6478 15.0078 15.5075 15.161C15.3673 15.3142 15.1744 15.4106 14.9662 15.4317C14.5182 15.4775 14.0668 15.5 13.612 15.5C6.3762 15.5 0.509766 9.71667 0.509766 2.58333C0.509766 2.135 0.532589 1.69 0.579081 1.24833C0.600429 1.04308 0.698256 0.852934 0.853628 0.714695C1.009 0.576456 1.21087 0.499956 1.42016 0.5H5.19193C5.40457 0.499974 5.60942 0.57896 5.76562 0.721209C5.92182 0.863458 6.0179 1.05852 6.0347 1.2675C6.1414 2.60649 6.53434 3.90807 7.1877 5.08667C7.28699 5.26547 7.31637 5.47395 7.27026 5.67266C7.22415 5.87137 7.10576 6.04654 6.93749 6.165L5.891 6.90167ZM3.75913 6.35417L5.36522 5.22333C4.90941 4.25341 4.59713 3.22403 4.43791 2.16667H2.20883C2.20376 2.305 2.20123 2.44417 2.20123 2.58333C2.20038 8.79667 7.30942 13.8333 13.612 13.8333C13.7532 13.8333 13.8944 13.8308 14.0347 13.825V11.6275C12.9621 11.4705 11.918 11.1627 10.9341 10.7133L9.78702 12.2967C9.3252 12.1198 8.87663 11.9109 8.44467 11.6717L8.39564 11.6442C6.73764 10.7139 5.36461 9.36035 4.42101 7.72583L4.39311 7.6775C4.15043 7.25166 3.93857 6.80945 3.75913 6.35417Z" fill="white"/>
</svg>
