<svg width="30" height="30" viewBox="0 0 30 30" fill="none" xmlns="http://www.w3.org/2000/svg">
    <path d="M6.66118 4.08972C8.20254 3.54174 9.98977 3.88461 11.2235 5.11832C12.6246 6.51946 12.8768 8.6345 11.9798 10.2926L25.3656 23.6799L23.5979 25.4476L10.2117 12.0612C8.55346 12.9589 6.43775 12.707 5.03629 11.3055C3.80223 10.0714 3.45952 8.28356 4.00815 6.74189L6.80407 9.53774C7.53629 10.27 8.72348 10.27 9.45572 9.53774C10.1879 8.80551 10.1879 7.61832 9.45572 6.88609L6.66118 4.08972ZM19.6204 6.44414L23.5979 4.23444L25.3656 6.00221L23.1559 9.97968L20.9463 10.4216L18.2945 13.0732L16.5268 11.3055L19.1784 8.65386L19.6204 6.44414ZM11.2235 16.6087L12.9913 18.3766L6.36212 25.0057C5.87397 25.4939 5.0825 25.4939 4.59435 25.0057C4.14107 24.5524 4.10869 23.8376 4.49722 23.347L4.59435 23.238L11.2235 16.6087Z" fill="#FEAD5E"/>
</svg>
