<svg width="30" height="30" viewBox="0 0 30 30" fill="none" xmlns="http://www.w3.org/2000/svg">
<path d="M27.5 23.75V26.25H25V23.75H5V26.25H2.5V23.75C1.80965 23.75 1.25 23.1904 1.25 22.5V7.5C1.25 6.80965 1.80965 6.25 2.5 6.25H15.6597C17.033 4.71563 19.0287 3.75 21.25 3.75C23.4713 3.75 25.467 4.71563 26.8403 6.25H27.5C28.1904 6.25 28.75 6.80965 28.75 7.5V22.5C28.75 23.1904 28.1904 23.75 27.5 23.75ZM14.1768 8.75H3.75V21.25H26.25V16.8403C24.9231 18.0279 23.1709 18.75 21.25 18.75C17.1079 18.75 13.75 15.3921 13.75 11.25C13.75 10.3734 13.9004 9.53195 14.1768 8.75ZM21.25 16.25C24.0114 16.25 26.25 14.0114 26.25 11.25C26.25 8.48857 24.0114 6.25 21.25 6.25C18.4886 6.25 16.25 8.48857 16.25 11.25C16.25 14.0114 18.4886 16.25 21.25 16.25ZM6.25 16.25H8.75V18.75H6.25V16.25ZM10 16.25H12.5V18.75H10V16.25Z" fill="#FEAD5E"/>
</svg>
