<svg width="11" height="11" viewBox="0 0 11 11" fill="none" xmlns="http://www.w3.org/2000/svg">
    <path d="M7.56246 1.375C8.95469 1.375 10.0833 2.52083 10.0833 4.125C10.0833 7.33333 6.64579 9.16667 5.49996 9.85417C4.35413 9.16667 0.916626 7.33333 0.916626 4.125C0.916626 2.52083 2.06246 1.375 3.43746 1.375C4.28995 1.375 5.04163 1.83333 5.49996 2.29167C5.95829 1.83333 6.70996 1.375 7.56246 1.375ZM5.928 8.52674C6.33206 8.27223 6.69621 8.01877 7.03762 7.74716C8.40291 6.66096 9.16663 5.4741 9.16663 4.125C9.16663 3.04368 8.46217 2.29167 7.56246 2.29167C7.06934 2.29167 6.53547 2.55251 6.14813 2.93985L5.49996 3.58803L4.85178 2.93985C4.46444 2.55251 3.93058 2.29167 3.43746 2.29167C2.54786 2.29167 1.83329 3.0509 1.83329 4.125C1.83329 5.4741 2.597 6.66096 3.96232 7.74716C4.30371 8.01877 4.66786 8.27223 5.07192 8.52674C5.20873 8.61295 5.34463 8.69591 5.49996 8.78863C5.65529 8.69591 5.79118 8.61295 5.928 8.52674Z" fill="white"/>
</svg>
