<svg width="30" height="30" viewBox="0 0 30 30" fill="none" xmlns="http://www.w3.org/2000/svg">
    <path d="M7.49756 2.5C10.8592 2.5 13.778 4.39566 15.2434 7.1763C16.715 5.10315 19.1357 3.75 21.8725 3.75H26.2475V6.875C26.2475 11.3623 22.6099 15 18.1225 15H16.2475V16.25H22.4975V25C22.4975 26.3808 21.3782 27.5 19.9975 27.5H9.99756C8.61685 27.5 7.49756 26.3808 7.49756 25V16.25H13.7475V13.75H11.2476C6.41506 13.75 2.49756 9.83249 2.49756 5V2.5H7.49756ZM19.9975 18.75H9.99756V25H19.9975V18.75ZM23.7475 6.25H21.8725C18.766 6.25 16.2475 8.7684 16.2475 11.875V12.5H18.1225C21.2291 12.5 23.7475 9.9816 23.7475 6.875V6.25ZM7.49756 5H4.99756C4.99756 8.45177 7.79577 11.25 11.2476 11.25H13.7475C13.7475 7.79822 10.9493 5 7.49756 5Z" fill="#FEAD5E"/>
</svg>
