<svg width="19" height="19" viewBox="0 0 19 19" fill="none" xmlns="http://www.w3.org/2000/svg">
    <path d="M5.9375 9.104C3.96999 9.104 2.375 7.50902 2.375 5.5415C2.375 3.57399 3.96999 1.979 5.9375 1.979C7.90501 1.979 9.5 3.57399 9.5 5.5415C9.5 7.50902 7.90501 9.104 5.9375 9.104ZM5.9375 17.0207C3.96999 17.0207 2.375 15.4257 2.375 13.4582C2.375 11.4906 3.96999 9.89567 5.9375 9.89567C7.90501 9.89567 9.5 11.4906 9.5 13.4582C9.5 15.4257 7.90501 17.0207 5.9375 17.0207ZM13.8542 9.104C11.8866 9.104 10.2917 7.50902 10.2917 5.5415C10.2917 3.57399 11.8866 1.979 13.8542 1.979C15.8217 1.979 17.4167 3.57399 17.4167 5.5415C17.4167 7.50902 15.8217 9.104 13.8542 9.104ZM13.8542 17.0207C11.8866 17.0207 10.2917 15.4257 10.2917 13.4582C10.2917 11.4906 11.8866 9.89567 13.8542 9.89567C15.8217 9.89567 17.4167 11.4906 17.4167 13.4582C17.4167 15.4257 15.8217 17.0207 13.8542 17.0207ZM5.9375 7.52067C7.03056 7.52067 7.91667 6.63457 7.91667 5.5415C7.91667 4.44844 7.03056 3.56234 5.9375 3.56234C4.84444 3.56234 3.95833 4.44844 3.95833 5.5415C3.95833 6.63457 4.84444 7.52067 5.9375 7.52067ZM5.9375 15.4373C7.03056 15.4373 7.91667 14.5512 7.91667 13.4582C7.91667 12.3651 7.03056 11.479 5.9375 11.479C4.84444 11.479 3.95833 12.3651 3.95833 13.4582C3.95833 14.5512 4.84444 15.4373 5.9375 15.4373ZM13.8542 7.52067C14.9472 7.52067 15.8333 6.63457 15.8333 5.5415C15.8333 4.44844 14.9472 3.56234 13.8542 3.56234C12.7611 3.56234 11.875 4.44844 11.875 5.5415C11.875 6.63457 12.7611 7.52067 13.8542 7.52067ZM13.8542 15.4373C14.9472 15.4373 15.8333 14.5512 15.8333 13.4582C15.8333 12.3651 14.9472 11.479 13.8542 11.479C12.7611 11.479 11.875 12.3651 11.875 13.4582C11.875 14.5512 12.7611 15.4373 13.8542 15.4373Z" fill="#1D828E"/>
</svg>
