<svg width="22" height="22" viewBox="0 0 22 22" fill="none" xmlns="http://www.w3.org/2000/svg">
    <g clip-path="url(#clip0_239_15663)">
        <path d="M2.80859 6.88384C3.57126 5.36515 4.74126 4.08848 6.18782 3.19652C7.63437 2.30457 9.30048 1.83247 10.9999 1.83301C13.4703 1.83301 15.5457 2.74051 17.1324 4.22093L14.5043 6.84993C13.5538 5.94151 12.3456 5.47859 10.9999 5.47859C8.612 5.47859 6.59075 7.09193 5.87117 9.25801C5.68784 9.80801 5.58334 10.3947 5.58334 10.9997C5.58334 11.6047 5.68784 12.1913 5.87117 12.7413C6.59167 14.9083 8.612 16.5208 10.9999 16.5208C12.2328 16.5208 13.2824 16.1953 14.1038 15.6453C14.5799 15.3318 14.9875 14.925 15.302 14.4495C15.6165 13.974 15.8313 13.4397 15.9334 12.8788H10.9999V9.33318H19.6331C19.7413 9.93268 19.7999 10.5578 19.7999 11.2078C19.7999 13.9999 18.8008 16.3503 17.0664 17.9453C15.5503 19.3459 13.4749 20.1663 10.9999 20.1663C9.796 20.1668 8.60379 19.93 7.49142 19.4696C6.37905 19.0091 5.36833 18.3339 4.51703 17.4826C3.66573 16.6313 2.99054 15.6205 2.53004 14.5082C2.06954 13.3958 1.83277 12.2036 1.83325 10.9997C1.83325 9.52018 2.18709 8.12134 2.80859 6.88384Z" fill="#1D828E"/>
    </g>
    <defs>
        <clipPath id="clip0_239_15663">
            <rect width="22" height="22" rx="5" fill="white"/>
        </clipPath>
    </defs>
</svg>
