<svg width="30" height="30" viewBox="0 0 30 30" fill="none" xmlns="http://www.w3.org/2000/svg">
    <path d="M16.2475 25H23.7475V20H18.7475V17.5H23.7475V7.5H21.2475V13.75L16.2475 11.75V25ZM13.7475 25V11.75L8.74756 13.75V7.5H6.24756V25H13.7475ZM8.74756 5V3.75H21.2475V5H24.9975C25.6879 5 26.2475 5.55965 26.2475 6.25V26.25C26.2475 26.9404 25.6879 27.5 24.9975 27.5H4.99756C4.3072 27.5 3.74756 26.9404 3.74756 26.25V6.25C3.74756 5.55965 4.3072 5 4.99756 5H8.74756ZM14.9975 10L19.3725 6.25H10.6226L14.9975 10Z" fill="#FEAD5E"/>
</svg>
