<svg width="40" height="40" viewBox="0 0 40 40" fill="none" xmlns="http://www.w3.org/2000/svg">
    <path d="M17.6907 29.6592C17.1283 30.9468 15.3463 30.9468 14.784 29.6592L13.3212 26.3088C12.0195 23.3275 9.67648 20.9542 6.75383 19.6568L2.72763 17.8697C1.44756 17.3015 1.44756 15.4393 2.72763 14.8711L6.62808 13.1397C9.62588 11.809 12.0109 9.34786 13.2904 6.26471L14.7722 2.69439C15.322 1.36945 17.1527 1.36945 17.7025 2.69439L19.1842 6.26474C20.4637 9.34786 22.8487 11.809 25.8465 13.1397L29.747 14.8711C31.027 15.4393 31.027 17.3015 29.747 17.8697L25.7208 19.6568C22.7982 20.9542 20.4552 23.3275 19.1533 26.3088L17.6907 29.6592ZM7.56593 16.3704C11.3757 18.0615 14.4734 20.8412 16.2373 24.6658C18.0013 20.8412 21.099 18.0615 24.9087 16.3704C21.0535 14.6591 17.946 11.744 16.2373 7.85131C14.5286 11.744 11.4211 14.6591 7.56593 16.3704ZM32.3357 37.8163L32.747 36.8735C33.4803 35.1925 34.8012 33.854 36.4492 33.1218L37.7165 32.5587C38.402 32.2542 38.402 31.258 37.7165 30.9535L36.5202 30.4218C34.8297 29.6708 33.4852 28.2828 32.7643 26.5447L32.342 25.5258C32.0475 24.8158 31.0658 24.8158 30.7713 25.5258L30.349 26.5447C29.6283 28.2828 28.2838 29.6708 26.5933 30.4218L25.3968 30.9535C24.7115 31.258 24.7115 32.2542 25.3968 32.5587L26.6642 33.1218C28.3123 33.854 29.633 35.1925 30.3663 36.8735L30.7778 37.8163C31.0788 38.5065 32.0345 38.5065 32.3357 37.8163ZM30.6242 31.7447L31.5617 30.8137L32.4797 31.7447L31.5617 32.6495L30.6242 31.7447Z" fill="#FEAD5E"/>
</svg>
