<svg width="30" height="30" viewBox="0 0 30 30" fill="none" xmlns="http://www.w3.org/2000/svg">
    <path d="M24.4506 15.122L26.365 18.4377C27.5731 20.5302 26.8561 23.206 24.7636 24.4141C24.0985 24.7981 23.3441 25.0002 22.5761 25.0002L19.9981 24.9995L19.9984 28.1252L13.7484 23.7502L19.9984 19.3752L19.9981 22.4995L22.5761 22.5002C22.9053 22.5002 23.2286 22.4136 23.5136 22.249C24.4104 21.7312 24.7178 20.5845 24.1999 19.6877L22.2856 16.372L24.4506 15.122ZM9.12822 11.4177L9.79208 19.0179L7.08561 17.4545L5.79689 19.6877C5.63233 19.9727 5.54569 20.2961 5.54569 20.6252C5.54569 21.6607 6.38516 22.5002 7.42069 22.5002L11.2494 22.5004V25.0002H7.42069C5.00444 25.0002 3.04569 23.0415 3.04569 20.6252C3.04569 19.8572 3.24784 19.1029 3.63183 18.4377L4.92061 16.2045L2.21436 14.6429L9.12822 11.4177ZM17.1859 3.71138C17.851 4.09537 18.4033 4.64766 18.7873 5.31275L20.0756 7.54451L22.7825 5.98261L22.1186 13.5827L15.2048 10.3576L17.9106 8.79451L16.6223 6.56275C16.4576 6.27771 16.221 6.04101 15.9359 5.87645C15.0391 5.35867 13.8924 5.66595 13.3746 6.56275L11.4602 9.87838L9.29519 8.62845L11.2096 5.31275C12.4177 3.22021 15.0934 2.50326 17.1859 3.71138Z" fill="#FEAD5E"/>
</svg>
