<svg width="19" height="19" viewBox="0 0 19 19" fill="none" xmlns="http://www.w3.org/2000/svg">
    <g clip-path="url(#clip0_1874_2929)">
        <path d="M8.70825 1.5835C12.6413 1.5835 15.8333 4.7755 15.8333 8.7085C15.8333 12.6415 12.6413 15.8335 8.70825 15.8335C4.77525 15.8335 1.58325 12.6415 1.58325 8.7085C1.58325 4.7755 4.77525 1.5835 8.70825 1.5835ZM8.70825 14.2502C11.7696 14.2502 14.2499 11.7699 14.2499 8.7085C14.2499 5.64633 11.7696 3.16683 8.70825 3.16683C5.64608 3.16683 3.16659 5.64633 3.16659 8.7085C3.16659 11.7699 5.64608 14.2502 8.70825 14.2502ZM15.4255 14.3064L17.6652 16.5452L16.545 17.6654L14.3061 15.4258L15.4255 14.3064Z" fill="#1D828E"/>
    </g>
    <defs>
        <clipPath id="clip0_1874_2929">
            <rect width="19" height="19" fill="white"/>
        </clipPath>
    </defs>
</svg>
