<svg width="22" height="22" viewBox="0 0 22 22" fill="none" xmlns="http://www.w3.org/2000/svg">
    <path d="M11.0009 18.333C15.051 18.333 18.3342 15.0498 18.3342 10.9997C18.3342 6.94958 15.051 3.66634 11.0009 3.66634C6.95081 3.66634 3.66756 6.94958 3.66756 10.9997C3.66756 15.0498 6.95081 18.333 11.0009 18.333ZM11.0009 20.1663C5.93828 20.1663 1.83423 16.0622 1.83423 10.9997C1.83423 5.93706 5.93828 1.83301 11.0009 1.83301C16.0635 1.83301 20.1676 5.93706 20.1676 10.9997C20.1676 16.0622 16.0635 20.1663 11.0009 20.1663ZM8.1502 12.0729L5.86032 11.3582C5.3654 11.2064 5.36246 10.8658 5.97114 10.6212L14.8931 7.17492C15.4105 6.96308 15.7048 7.23073 15.537 7.89805L14.0174 15.0676C13.9116 15.5776 13.604 15.6991 13.1779 15.4637L10.8396 13.7334L9.74976 14.7852C9.63774 14.8933 9.54662 14.9862 9.37502 15.0094C9.20333 15.0326 9.06183 14.9819 8.95892 14.6972L8.1618 12.0656L8.1502 12.0729Z" fill="#1D828E"/>
</svg>
