<svg width="40" height="40" viewBox="0 0 40 40" fill="none" xmlns="http://www.w3.org/2000/svg">
    <path d="M8.88153 5.45279C10.9367 4.72216 13.3196 5.17931 14.9646 6.82426C16.8328 8.69244 17.169 11.5125 15.973 13.7232L33.8208 31.573L31.4638 33.93L13.6155 16.0814C11.4046 17.2783 8.58363 16.9425 6.71501 15.0738C5.0696 13.4284 4.61265 11.0446 5.34416 8.98903L9.07205 12.7168C10.0483 13.6931 11.6313 13.6931 12.6076 12.7168C13.5839 11.7405 13.5839 10.1576 12.6076 9.18129L8.88153 5.45279ZM26.1605 8.59203L31.4638 5.64576L33.8208 8.00278L30.8745 13.3061L27.9283 13.8953L24.3926 17.4308L22.0356 15.0738L25.5711 11.5383L26.1605 8.59203ZM14.9646 22.1448L17.3216 24.502L8.48278 33.3408C7.83191 33.9917 6.77663 33.9917 6.12576 33.3408C5.52138 32.7363 5.47821 31.7833 5.99625 31.1292L6.12576 30.9838L14.9646 22.1448Z" fill="#1D828E"/>
</svg>
