<svg width="40" height="40" viewBox="0 0 40 40" fill="none" xmlns="http://www.w3.org/2000/svg">
    <path d="M14.9409 30.0002C14.5365 32.827 12.1054 35.0002 9.16663 35.0002C6.22789 35.0002 3.79673 32.827 3.39236 30.0002H1.66663V10.0002C1.66663 9.0797 2.41283 8.3335 3.33329 8.3335H26.6666C27.5871 8.3335 28.3333 9.0797 28.3333 10.0002V13.3335H33.3333L38.3333 20.093V30.0002H34.941C34.5365 32.827 32.1053 35.0002 29.1666 35.0002C26.228 35.0002 23.7968 32.827 23.3923 30.0002H14.9409ZM25 11.6668H4.99996V25.0843C6.05873 24.0038 7.53439 23.3335 9.16663 23.3335C11.4936 23.3335 13.5024 24.696 14.4386 26.6668H23.8946C24.1741 26.0785 24.5493 25.5442 25 25.0843V11.6668ZM28.3333 21.6668H35V21.1918L31.6528 16.6668H28.3333V21.6668ZM29.1666 31.6668C30.2551 31.6668 31.1811 30.9712 31.5243 30.0002C31.6165 29.7395 31.6666 29.459 31.6666 29.1668C31.6666 27.7862 30.5473 26.6668 29.1666 26.6668C27.786 26.6668 26.6666 27.7862 26.6666 29.1668C26.6666 29.459 26.7168 29.7395 26.809 30.0002C27.1521 30.9712 28.0781 31.6668 29.1666 31.6668ZM11.6666 29.1668C11.6666 27.7862 10.5473 26.6668 9.16663 26.6668C7.78591 26.6668 6.66663 27.7862 6.66663 29.1668C6.66663 29.459 6.71676 29.7395 6.80888 30.0002C7.15208 30.9712 8.07811 31.6668 9.16663 31.6668C10.2551 31.6668 11.1812 30.9712 11.5244 30.0002C11.6165 29.7395 11.6666 29.459 11.6666 29.1668Z" fill="#1D828E"/>
</svg>
